<?xml version="1.0" encoding="UTF-8"?>
<!-- Generator: Adobe Illustrator 14.0.0, SVG Export Plug-In . SVG Version: 6.00 Build 43363)  -->
<!DOCTYPE svg PUBLIC "-//W3C//DTD SVG 1.1//EN" "http://www.w3.org/Graphics/SVG/1.1/DTD/svg11.dtd">
<svg version="1.1" id="Layer_1" xmlns="http://www.w3.org/2000/svg" xmlns:xlink="http://www.w3.org/1999/xlink" x="0px" y="0px" width="578.971px" height="427.479px" viewBox="0 0 578.971 427.479" enable-background="new 0 0 578.971 427.479" xml:space="preserve">
<g id="Layer_3">
	<g>
		<line fill="none" stroke="#ACACAC" x1="153.895" y1="281.397" x2="71.895" y2="285.397"/>
		<line fill="none" stroke="#ACACAC" x1="150.895" y1="285.397" x2="73.895" y2="293.897"/>
		<line fill="none" stroke="#ACACAC" x1="151.395" y1="288.397" x2="74.895" y2="300.897"/>
		<line fill="none" stroke="#ACACAC" x1="152.395" y1="290.897" x2="75.395" y2="308.897"/>
		<line fill="none" stroke="#ACACAC" x1="155.395" y1="292.397" x2="77.895" y2="316.897"/>
	</g>
	<line fill="none" stroke="#ACACAC" x1="188.395" y1="332.397" x2="148.395" y2="396.897"/>
	<line fill="none" stroke="#ACACAC" x1="190.895" y1="334.897" x2="154.895" y2="400.397"/>
	<line fill="none" stroke="#ACACAC" x1="193.395" y1="336.397" x2="161.395" y2="402.897"/>
	<line fill="none" stroke="#ACACAC" x1="195.395" y1="337.897" x2="168.895" y2="403.897"/>
	<line fill="none" stroke="#ACACAC" x1="198.895" y1="337.897" x2="176.395" y2="407.397"/>
	<line fill="none" stroke="#ACACAC" x1="304.896" y1="309.897" x2="335.895" y2="383.397"/>
	<line fill="none" stroke="#ACACAC" x1="308.895" y1="310.897" x2="344.395" y2="382.897"/>
	<line fill="none" stroke="#ACACAC" x1="311.395" y1="308.897" x2="349.895" y2="378.897"/>
	<line fill="none" stroke="#ACACAC" x1="314.895" y1="308.397" x2="356.395" y2="373.897"/>
	<line fill="none" stroke="#ACACAC" x1="315.395" y1="304.897" x2="364.395" y2="369.897"/>
	<line fill="none" stroke="#ACACAC" x1="271.895" y1="78.897" x2="232.895" y2="26.397"/>
	<line fill="none" stroke="#ACACAC" x1="273.895" y1="77.397" x2="237.895" y2="22.397"/>
	<line fill="none" stroke="#ACACAC" x1="275.395" y1="76.397" x2="242.895" y2="19.897"/>
	<line fill="none" stroke="#ACACAC" x1="277.895" y1="74.897" x2="248.395" y2="16.397"/>
	<line fill="none" stroke="#ACACAC" x1="280.395" y1="73.897" x2="254.895" y2="14.897"/>
	
		<radialGradient id="SVGID_1_" cx="289.3945" cy="229.3311" r="27.976" gradientTransform="matrix(1, 0, 0, -1, 0, 427.478)" gradientUnits="userSpaceOnUse">
		<stop offset="0" style="stop-color:#FDB82D"/>
		<stop offset="0.113" style="stop-color:#FCB02C"/>
		<stop offset="0.3071" style="stop-color:#F99C2A"/>
		<stop offset="0.5589" style="stop-color:#F47D27"/>
		<stop offset="0.8556" style="stop-color:#EF4824"/>
		<stop offset="1" style="stop-color:#ED1C24"/>
	</radialGradient>
	<polygon fill="url(#SVGID_1_)" points="265.895,214.897 288.895,212.897 294.896,228.397 296.896,211.897 314.895,222.397    307.895,203.397 313.395,197.897 312.395,179.397 300.896,185.897 289.395,167.897 285.395,189.397 263.895,177.397    281.895,196.897 278.395,201.897  "/>
</g>
<circle fill="#FBDF00" cx="280.895" cy="82.897" r="10"/>
<circle fill="#242058" cx="310.395" cy="139.397" r="10"/>
<circle fill="none" stroke="#E06441" stroke-width="2" cx="368.395" cy="102.397" r="10"/>
<circle fill="none" stroke="#0A8543" stroke-width="2" cx="392.395" cy="40.397" r="10"/>
<circle fill="#C71E66" cx="434.895" cy="87.397" r="10"/>
<circle fill="#FFFFFF" stroke="#FBDF00" stroke-width="2" cx="307.402" cy="300.406" r="10"/>
<circle fill="none" stroke="#242058" stroke-width="2" cx="276.577" cy="255.097" r="10"/>
<circle fill="#E06441" cx="219.026" cy="282.653" r="10"/>
<circle fill="#FFFFFF" stroke="#39B6E6" stroke-width="2" cx="162.361" cy="286.405" r="10"/>
<circle fill="#FBDF00" cx="198.026" cy="328.217" r="10"/>
<line fill="none" stroke="#070909" x1="295.856" y1="187.397" x2="304.435" y2="154.397"/>
<path fill="#070909" d="M305.953,148.557c0.305,3.013,1.159,6.876,2.451,9.468l-4.169-2.86l-5.034,0.468  C301.591,153.998,304.218,151.04,305.953,148.557z"/>
<line fill="none" stroke="#070909" x1="304.896" y1="124.897" x2="289.895" y2="96.897"/>
<path fill="#070909" d="M287.045,91.578c2.27,2.005,5.519,4.262,8.228,5.289l-5.004,0.729l-3.378,3.761  C287.537,98.533,287.458,94.578,287.045,91.578z"/>
<path fill="none" stroke="#070909" d="M320.395,127.397c0.877-0.485,1.699-1.041,2.587-1.503c1.141-0.594,1.993-0.793,3.319-0.725  c0.88,0.045,2.162,0.197,2.857-0.497c1.208-1.202-0.707-4.626,2.104-4.542c1.223,0.037,2.796,1.055,3.896,0.833  c1.234-0.249,1.188-1.689,1.009-2.652c-0.205-1.106-0.015-3.158,1.32-3.547c1.779-0.519,2.634,1.54,4.244,1.335  c1.702-0.216,0.869-2.455,0.888-3.573c0.019-1.318,0.849-2.382,2.178-2.454c1.411-0.076,2.303,1.586,3.723,1.664  c1.539,0.083,3.109-1.636,4.375-2.339"/>
<path fill="#070909" d="M358.17,106.466c-1.971,2.3-4.178,5.583-5.162,8.308l-0.806-4.992l-3.813-3.321  C351.223,107.064,355.176,106.925,358.17,106.466z"/>
<line fill="none" stroke="#070909" x1="381.395" y1="100.397" x2="418.895" y2="89.897"/>
<path fill="#070909" d="M424.707,88.27c-2.45,1.781-5.358,4.462-6.948,6.883l0.374-5.042l-2.938-4.115  C417.81,87.24,421.688,88.021,424.707,88.27z"/>
<line fill="none" stroke="#070909" x1="373.895" y1="87.397" x2="385.395" y2="57.897"/>
<path fill="#070909" d="M387.587,52.274c-0.05,3.029,0.346,6.964,1.325,9.69l-3.806-3.33l-5.056-0.125  C382.619,57.167,385.575,54.538,387.587,52.274z"/>
<line fill="none" stroke="#070909" x1="291.739" y1="206.064" x2="281.051" y2="237.897"/>
<path fill="#070909" d="M279.13,243.619c-0.095-3.028-0.678-6.94-1.787-9.616l3.96,3.145l5.055-0.117  C283.859,238.494,281.033,241.262,279.13,243.619z"/>
<path fill="none" stroke="#070909" d="M262.302,259.822c-1.449,0.841-2.911,1.825-4.362,2.733c-1.103,0.691-2.595,1.077-3.892,0.898  c-0.516-0.071-1.005-0.419-1.496-0.469c-2.639-0.27-1.378,3.576-2.503,4.808c-1.603,1.754-3.941-0.864-5.805-0.291  c-1.83,0.563-0.264,3.239-1.526,4.313c-1.557,1.324-3.749-1.053-5.399-0.034c-0.914,0.563-0.741,1.628-1.181,2.464  c-0.453,0.861-1.606,1.306-2.485,1.65"/>
<path fill="#070909" d="M228.034,278.099c2.259-2.017,4.883-4.977,6.222-7.546l0.134,5.056l3.336,3.799  C234.999,278.433,231.062,278.043,228.034,278.099z"/>
<line fill="none" stroke="#070909" x1="204.395" y1="283.397" x2="180.395" y2="285.397"/>
<path fill="#070909" d="M174.381,285.897c2.742-1.285,6.104-3.369,8.123-5.447l-1.319,4.882l2.109,4.597  C180.959,288.212,177.298,286.712,174.381,285.897z"/>
<line fill="none" stroke="#070909" x1="213.895" y1="294.397" x2="205.895" y2="310.897"/>
<path fill="#070909" d="M203.262,316.328c0.291-3.017,0.21-6.97-0.55-9.767l3.528,3.623l5.029,0.526  C208.604,311.847,205.449,314.231,203.262,316.328z"/>
<line fill="none" stroke="#070909" x1="284.395" y1="266.397" x2="296.896" y2="285.397"/>
<path fill="#070909" d="M300.212,290.438c-2.441-1.793-5.88-3.748-8.67-4.526l4.917-1.177l3.026-4.051  C299.097,283.556,299.531,287.487,300.212,290.438z"/>
<linearGradient id="SVGID_2_" gradientUnits="userSpaceOnUse" x1="9.895" y1="231.25" x2="45.0898" y2="231.25" gradientTransform="matrix(1, 0, 0, -1, 0, 427.478)">
	<stop offset="0" style="stop-color:#FFFFFF"/>
	<stop offset="0.2965" style="stop-color:#E3A08B"/>
	<stop offset="0.7091" style="stop-color:#C72128"/>
</linearGradient>
<polygon fill="url(#SVGID_2_)" points="44.156,205.6 9.895,193.946 45.09,186.856 "/>
<circle fill="#C82128" cx="47.895" cy="196.397" r="10"/>
<linearGradient id="SVGID_3_" gradientUnits="userSpaceOnUse" x1="68.895" y1="230.583" x2="104.0898" y2="230.583" gradientTransform="matrix(1, 0, 0, -1, 0, 427.478)">
	<stop offset="0" style="stop-color:#FFFFFF"/>
	<stop offset="0.2965" style="stop-color:#E3A08B"/>
	<stop offset="0.7091" style="stop-color:#C72128"/>
</linearGradient>
<polygon fill="url(#SVGID_3_)" points="103.156,206.268 68.895,194.613 104.09,187.523 "/>
<circle fill="#C82128" cx="106.895" cy="197.064" r="10"/>
<linearGradient id="SVGID_4_" gradientUnits="userSpaceOnUse" x1="128.229" y1="230.583" x2="163.4238" y2="230.583" gradientTransform="matrix(1, 0, 0, -1, 0, 427.478)">
	<stop offset="0" style="stop-color:#FFFFFF"/>
	<stop offset="0.2965" style="stop-color:#E3A08B"/>
	<stop offset="0.7091" style="stop-color:#C72128"/>
</linearGradient>
<polygon fill="url(#SVGID_4_)" points="162.489,206.268 128.229,194.613 163.424,187.523 "/>
<circle fill="#C82128" cx="166.229" cy="197.064" r="10"/>
<linearGradient id="SVGID_5_" gradientUnits="userSpaceOnUse" x1="186.228" y1="229.916" x2="221.4229" y2="229.916" gradientTransform="matrix(1, 0, 0, -1, 0, 427.478)">
	<stop offset="0" style="stop-color:#FFFFFF"/>
	<stop offset="0.2965" style="stop-color:#E3A08B"/>
	<stop offset="0.7091" style="stop-color:#C72128"/>
</linearGradient>
<polygon fill="url(#SVGID_5_)" points="220.489,206.934 186.228,195.28 221.423,188.19 "/>
<circle fill="#C82128" cx="224.228" cy="197.731" r="10"/>
<linearGradient id="SVGID_6_" gradientUnits="userSpaceOnUse" x1="246.229" y1="229.25" x2="281.4238" y2="229.25" gradientTransform="matrix(1, 0, 0, -1, 0, 427.478)">
	<stop offset="0" style="stop-color:#FFFFFF"/>
	<stop offset="0.2965" style="stop-color:#E3A08B"/>
	<stop offset="0.7091" style="stop-color:#C72128"/>
</linearGradient>
<polygon fill="url(#SVGID_6_)" points="280.489,207.601 246.229,195.946 281.424,188.856 "/>
<circle fill="#C82128" cx="284.229" cy="198.397" r="10"/>
<linearGradient id="SVGID_7_" gradientUnits="userSpaceOnUse" x1="-130.1328" y1="682.4375" x2="-94.9385" y2="682.4375" gradientTransform="matrix(-1, 0, 0, 1, 211.428, -484.538)">
	<stop offset="0" style="stop-color:#FFFFFF"/>
	<stop offset="0.2965" style="stop-color:#E3A08B"/>
	<stop offset="0.7091" style="stop-color:#C72128"/>
</linearGradient>
<polygon fill="url(#SVGID_7_)" points="307.301,188.528 341.561,200.182 306.366,207.272 "/>
<circle fill="#FFFFFF" stroke="#C82128" cx="303.562" cy="197.731" r="10"/>
<linearGradient id="SVGID_8_" gradientUnits="userSpaceOnUse" x1="-188.4668" y1="682.1055" x2="-153.2725" y2="682.1055" gradientTransform="matrix(-1, 0, 0, 1, 211.428, -484.538)">
	<stop offset="0" style="stop-color:#FFFFFF"/>
	<stop offset="0.2965" style="stop-color:#E3A08B"/>
	<stop offset="0.7091" style="stop-color:#C72128"/>
</linearGradient>
<polygon fill="url(#SVGID_8_)" points="365.635,188.195 399.895,199.849 364.7,206.939 "/>
<circle fill="#FFFFFF" stroke="#C82128" cx="361.895" cy="197.398" r="10"/>
<linearGradient id="SVGID_9_" gradientUnits="userSpaceOnUse" x1="-245.1328" y1="682.1055" x2="-209.9385" y2="682.1055" gradientTransform="matrix(-1, 0, 0, 1, 211.428, -484.538)">
	<stop offset="0" style="stop-color:#FFFFFF"/>
	<stop offset="0.2965" style="stop-color:#E3A08B"/>
	<stop offset="0.7091" style="stop-color:#C72128"/>
</linearGradient>
<polygon fill="url(#SVGID_9_)" points="422.301,188.195 456.561,199.85 421.366,206.939 "/>
<circle fill="#FFFFFF" stroke="#C82128" cx="418.561" cy="197.398" r="10"/>
<linearGradient id="SVGID_10_" gradientUnits="userSpaceOnUse" x1="-305.1328" y1="681.4375" x2="-269.9385" y2="681.4375" gradientTransform="matrix(-1, 0, 0, 1, 211.428, -484.538)">
	<stop offset="0" style="stop-color:#FFFFFF"/>
	<stop offset="0.2965" style="stop-color:#E3A08B"/>
	<stop offset="0.7091" style="stop-color:#C72128"/>
</linearGradient>
<polygon fill="url(#SVGID_10_)" points="482.301,187.528 516.561,199.183 481.366,206.272 "/>
<circle fill="#FFFFFF" stroke="#C82128" cx="478.561" cy="196.731" r="10"/>
<linearGradient id="SVGID_11_" gradientUnits="userSpaceOnUse" x1="-363.7988" y1="681.4375" x2="-328.6045" y2="681.4375" gradientTransform="matrix(-1, 0, 0, 1, 211.428, -484.538)">
	<stop offset="0" style="stop-color:#FFFFFF"/>
	<stop offset="0.2965" style="stop-color:#E3A08B"/>
	<stop offset="0.7091" style="stop-color:#C72128"/>
</linearGradient>
<polygon fill="url(#SVGID_11_)" points="540.967,187.528 575.227,199.182 540.032,206.272 "/>
<circle fill="#FFFFFF" stroke="#C82128" cx="537.227" cy="196.731" r="10"/>
<path d="M48.632,295.94h1.496v7.666c0,3.043-1.496,3.979-3.468,3.979c-0.561,0-1.224-0.118-1.581-0.271l0.204-1.207  c0.306,0.119,0.748,0.222,1.258,0.222c1.326,0,2.091-0.595,2.091-2.838V295.94z"/>
<path d="M53.375,303.558c0.034,2.022,1.309,2.854,2.822,2.854c1.071,0,1.734-0.187,2.278-0.425l0.272,1.07  c-0.527,0.238-1.445,0.526-2.754,0.526c-2.533,0-4.045-1.683-4.045-4.164S53.41,299,55.806,299c2.703,0,3.4,2.347,3.4,3.858  c0,0.307-0.017,0.527-0.051,0.697h-5.78V303.558z M57.761,302.485c0.017-0.936-0.391-2.414-2.074-2.414  c-1.53,0-2.176,1.378-2.295,2.414H57.761z"/>
<path d="M62.861,297.199v1.972h2.142v1.141h-2.142v4.437c0,1.021,0.289,1.599,1.122,1.599c0.408,0,0.646-0.035,0.867-0.104  l0.068,1.14c-0.289,0.103-0.748,0.203-1.326,0.203c-0.697,0-1.258-0.237-1.615-0.629c-0.408-0.459-0.578-1.188-0.578-2.158v-4.487  h-1.275v-1.14h1.275v-1.528L62.861,297.199z"/>
<path d="M212.299,9.274h1.496v7.666c0,3.043-1.496,3.978-3.468,3.978c-0.561,0-1.224-0.118-1.581-0.271l0.204-1.207  c0.306,0.119,0.748,0.221,1.258,0.221c1.326,0,2.091-0.595,2.091-2.838V9.274z"/>
<path d="M217.042,16.89c0.034,2.023,1.309,2.855,2.822,2.855c1.071,0,1.734-0.187,2.278-0.425l0.272,1.071  c-0.527,0.238-1.445,0.526-2.754,0.526c-2.533,0-4.045-1.683-4.045-4.164s1.462-4.42,3.858-4.42c2.703,0,3.4,2.346,3.4,3.859  c0,0.306-0.017,0.526-0.051,0.696h-5.78V16.89z M221.428,15.819c0.017-0.936-0.391-2.414-2.074-2.414  c-1.53,0-2.176,1.377-2.295,2.414H221.428z"/>
<path d="M226.527,10.532v1.972h2.142v1.14h-2.142v4.437c0,1.02,0.289,1.598,1.122,1.598c0.408,0,0.646-0.034,0.867-0.103l0.068,1.14  c-0.289,0.102-0.748,0.203-1.326,0.203c-0.697,0-1.258-0.237-1.615-0.629c-0.408-0.459-0.578-1.189-0.578-2.158v-4.487h-1.275v-1.14  h1.275v-1.529L226.527,10.532z"/>
<path d="M148.299,407.941h1.496v7.666c0,3.043-1.496,3.978-3.468,3.978c-0.561,0-1.224-0.118-1.581-0.271l0.204-1.207  c0.306,0.118,0.748,0.221,1.258,0.221c1.326,0,2.091-0.595,2.091-2.838V407.941z"/>
<path d="M153.042,415.557c0.034,2.023,1.309,2.855,2.822,2.855c1.071,0,1.734-0.188,2.278-0.425l0.272,1.07  c-0.527,0.238-1.445,0.526-2.754,0.526c-2.533,0-4.045-1.683-4.045-4.164c0-2.48,1.462-4.42,3.858-4.42c2.703,0,3.4,2.346,3.4,3.859  c0,0.306-0.017,0.525-0.051,0.695h-5.78V415.557z M157.428,414.486c0.017-0.937-0.391-2.414-2.074-2.414  c-1.53,0-2.176,1.377-2.295,2.414H157.428z"/>
<path d="M162.528,409.199v1.972h2.142v1.14h-2.142v4.438c0,1.02,0.289,1.598,1.122,1.598c0.408,0,0.646-0.033,0.867-0.103  l0.068,1.14c-0.289,0.103-0.748,0.203-1.326,0.203c-0.697,0-1.258-0.237-1.615-0.629c-0.408-0.459-0.578-1.189-0.578-2.158v-4.486  h-1.275v-1.141h1.275v-1.529L162.528,409.199z"/>
<path d="M356.299,383.94h1.496v7.666c0,3.043-1.496,3.979-3.468,3.979c-0.563,0-1.224-0.118-1.581-0.271l0.204-1.207  c0.306,0.119,0.748,0.222,1.258,0.222c1.325,0,2.091-0.595,2.091-2.838V383.94L356.299,383.94z"/>
<path d="M361.042,391.558c0.034,2.022,1.31,2.854,2.821,2.854c1.07,0,1.733-0.187,2.277-0.425l0.272,1.07  c-0.527,0.238-1.445,0.526-2.754,0.526c-2.533,0-4.046-1.683-4.046-4.164s1.462-4.42,3.857-4.42c2.703,0,3.4,2.347,3.4,3.858  c0,0.307-0.018,0.527-0.052,0.697h-5.777V391.558z M365.428,390.485c0.019-0.936-0.391-2.414-2.074-2.414  c-1.528,0-2.176,1.378-2.295,2.414H365.428z"/>
<path d="M370.528,385.199v1.972h2.143v1.141h-2.143v4.437c0,1.021,0.289,1.599,1.122,1.599c0.407,0,0.646-0.035,0.865-0.104  l0.068,1.14c-0.289,0.103-0.748,0.203-1.326,0.203c-0.695,0-1.258-0.237-1.614-0.629c-0.406-0.459-0.576-1.188-0.576-2.158v-4.487  h-1.275v-1.14h1.275v-1.528L370.528,385.199z"/>
<path d="M325.348,145.865l-0.373,1.972h1.972l-0.222,1.105h-1.972l-0.748,3.995c-0.102,0.458-0.17,0.884-0.17,1.309  c0,0.493,0.238,0.799,0.782,0.799c0.255,0,0.476-0.017,0.662-0.068l-0.067,1.105c-0.255,0.102-0.68,0.153-1.088,0.153  c-1.241,0-1.733-0.748-1.733-1.598c0-0.476,0.067-0.935,0.188-1.53l0.799-4.165h-1.173l0.204-1.105h1.173l0.289-1.53  L325.348,145.865z"/>
<path d="M298.879,77.995l-1.088,5.337h0.033c0.729-1.105,1.784-1.683,2.89-1.683c1.803,0,2.48,1.496,2.48,2.958  c0,2.533-1.817,5.644-5.115,5.644c-1.444,0-2.532-0.595-2.532-2.108c0-0.408,0.067-0.901,0.152-1.292l1.768-8.856H298.879z   M297.094,86.885c-0.067,0.289-0.118,0.612-0.103,1.054c0,0.782,0.459,1.207,1.326,1.207c2.123,0,3.416-2.533,3.416-4.369  c0-1.02-0.441-1.955-1.563-1.955c-1.224,0-2.481,1.258-2.89,3.196L297.094,86.885z"/>
<path d="M382.39,126.063l-0.562-11.457h1.429l0.237,6.868c0.051,1.479,0.018,2.261,0,2.992h0.034  c0.271-0.748,0.561-1.496,1.188-2.907l3.179-6.953h1.496l0.238,6.596c0.051,1.496,0.051,2.481,0.034,3.229h0.033  c0.341-0.986,0.681-1.904,1.122-2.941l3.076-6.884h1.479l-5.304,11.457h-1.495l-0.289-6.51c-0.068-1.343-0.051-1.989,0.034-3.298  h-0.053c-0.374,1.088-0.68,1.972-1.154,3.009l-3.213,6.799H382.39z"/>
<path d="M400.874,107.688v3.995h3.723v1.003h-3.723v4.045h-1.054v-4.045h-3.724v-1.003h3.724v-3.995H400.874z"/>
<path d="M409.178,46.048c-0.271,1.428,0.119,2.346,1.377,2.346c0.867,0,1.666-0.901,2.107-1.734c0.17-0.306,0.289-0.663,0.356-1.003  l0.851-4.487h1.411l-1.104,5.847c-0.204,1.071-0.051,1.394,0.477,1.428l-0.307,1.088c-0.152,0.034-0.221,0.051-0.459,0.051  c-0.663,0-1.139-0.408-1.07-1.7h-0.052c-0.492,0.884-1.377,1.666-2.48,1.666c-0.731,0-1.377-0.323-1.666-0.986l-0.188,1.105  c-0.17,0.901-0.407,2.397-0.355,3.094h-1.259c-0.103-0.476,0.018-1.7,0.271-3.043l1.615-8.55h1.394L409.178,46.048z"/>
<path d="M421.874,34.021v3.995h3.723v1.003h-3.723v4.045h-1.054v-4.045h-3.724v-1.003h3.724v-3.995H421.874z"/>
<path d="M451.579,88.503c0.221,1.479,0.459,3.025,0.697,4.539c0.102,0.833,0.187,1.479,0.289,2.244h0.066  c1.037-1.547,2.567-3.978,2.991-5.881c0.068-0.357,0.119-0.646,0.119-0.901h1.377c0,0.187,0,0.442-0.051,0.714  c-0.392,2.21-2.192,4.98-4.198,7.513h-1.343c-0.459-2.737-0.952-5.524-1.429-8.227L451.579,88.503L451.579,88.503z"/>
<path d="M458.468,98.027c-0.213,1.119,0.093,1.838,1.079,1.838c0.68,0,1.306-0.706,1.651-1.358c0.134-0.24,0.227-0.52,0.279-0.786  l0.666-3.517h1.105l-0.866,4.582c-0.159,0.84-0.04,1.093,0.373,1.119l-0.239,0.853c-0.12,0.026-0.174,0.04-0.359,0.04  c-0.521,0-0.893-0.319-0.839-1.332h-0.04c-0.387,0.692-1.079,1.306-1.944,1.306c-0.573,0-1.079-0.253-1.306-0.772l-0.146,0.865  c-0.134,0.706-0.32,1.879-0.28,2.425h-0.984c-0.08-0.373,0.014-1.332,0.213-2.385l1.266-6.7h1.094L458.468,98.027z"/>
<path d="M53.177,220.097l1.649-8.67c0.187-1.003,0.357-2.108,0.459-2.941h1.292l-0.221,1.564h0.034  c0.731-1.088,1.819-1.734,2.958-1.734c1.768,0,2.516,1.462,2.516,2.975c0,2.907-2.074,5.626-4.811,5.626  c-0.867,0-1.445-0.188-1.768-0.374h-0.034l-0.663,3.554H53.177z M55.489,215.354c0.374,0.289,0.901,0.459,1.581,0.459  c1.819,0,3.332-2.262,3.332-4.419c0-0.867-0.374-1.904-1.581-1.904c-1.105,0-2.482,1.258-2.907,3.57L55.489,215.354z"/>
<path d="M524.177,228.431l1.649-8.67c0.187-1.003,0.355-2.107,0.459-2.941h1.291l-0.221,1.564h0.032  c0.731-1.088,1.819-1.734,2.959-1.734c1.769,0,2.517,1.463,2.517,2.976c0,2.907-2.074,5.626-4.812,5.626  c-0.867,0-1.444-0.188-1.768-0.374h-0.035l-0.662,3.554H524.177z M526.489,223.688c0.374,0.289,0.899,0.459,1.581,0.459  c1.818,0,3.331-2.262,3.331-4.42c0-0.867-0.373-1.903-1.58-1.903c-1.105,0-2.482,1.258-2.906,3.569L526.489,223.688z"/>
<line fill="none" stroke="#000000" x1="525.227" y1="212.397" x2="533.227" y2="212.397"/>
<path d="M296.349,248.2l-0.375,1.971h1.973l-0.221,1.105h-1.974l-0.748,3.994c-0.103,0.459-0.17,0.885-0.17,1.309  c0,0.494,0.237,0.799,0.783,0.799c0.254,0,0.475-0.018,0.661-0.066l-0.067,1.104c-0.254,0.104-0.681,0.152-1.088,0.152  c-1.24,0-1.733-0.747-1.733-1.598c0-0.476,0.067-0.935,0.188-1.529l0.799-4.164h-1.172l0.203-1.105h1.174l0.289-1.529L296.349,248.2  z"/>
<line fill="none" stroke="#000000" x1="291.228" y1="245.731" x2="299.228" y2="245.731"/>
<path d="M326.545,287.329l-1.088,5.338h0.034c0.73-1.105,1.785-1.684,2.89-1.684c1.803,0,2.482,1.496,2.482,2.959  c0,2.531-1.819,5.643-5.117,5.643c-1.445,0-2.533-0.594-2.533-2.107c0-0.408,0.068-0.899,0.154-1.291l1.768-8.856L326.545,287.329  L326.545,287.329z M324.76,296.22c-0.066,0.289-0.118,0.611-0.102,1.055c0,0.781,0.459,1.207,1.326,1.207  c2.125,0,3.416-2.532,3.416-4.369c0-1.02-0.441-1.954-1.563-1.954c-1.224,0-2.48,1.258-2.89,3.194L324.76,296.22z"/>
<line fill="none" stroke="#000000" x1="323.227" y1="284.731" x2="331.227" y2="284.731"/>
<path d="M208.39,267.396l-0.562-11.457h1.429l0.237,6.869c0.051,1.479,0.018,2.26,0,2.99h0.034c0.272-0.748,0.561-1.496,1.189-2.906  l3.179-6.953h1.496l0.238,6.597c0.051,1.495,0.051,2.481,0.034,3.229h0.033c0.341-0.986,0.681-1.904,1.122-2.941l3.077-6.885h1.479  l-5.304,11.457h-1.495l-0.289-6.511c-0.068-1.342-0.051-1.987,0.034-3.297h-0.052c-0.374,1.088-0.68,1.972-1.155,3.009l-3.213,6.799  H208.39z"/>
<line fill="none" stroke="#000000" x1="223.228" y1="253.397" x2="231.228" y2="253.397"/>
<path d="M215.545,324.662l-1.088,5.337h0.034c0.731-1.104,1.785-1.682,2.89-1.682c1.802,0,2.482,1.494,2.482,2.957  c0,2.533-1.819,5.644-5.117,5.644c-1.445,0-2.533-0.595-2.533-2.108c0-0.406,0.068-0.899,0.153-1.291l1.768-8.855L215.545,324.662  L215.545,324.662z M213.76,333.552c-0.068,0.289-0.119,0.612-0.102,1.055c0,0.781,0.459,1.207,1.326,1.207  c2.125,0,3.417-2.532,3.417-4.369c0-1.02-0.442-1.954-1.564-1.954c-1.224,0-2.481,1.258-2.89,3.196L213.76,333.552z"/>
<path d="M167.435,271.06c-0.425,0.221-1.275,0.51-2.379,0.51c-2.125,0-3.162-1.428-3.162-3.18c0-2.805,2.074-5.389,5.032-5.389  c0.765,0,1.462,0.221,1.717,0.357l-0.408,1.121c-0.323-0.152-0.782-0.306-1.394-0.306c-2.142,0-3.485,2.107-3.485,4.045  c0,1.326,0.697,2.193,2.04,2.193c0.85,0,1.479-0.256,1.904-0.459L167.435,271.06z"/>
<line fill="none" stroke="#000000" x1="161.227" y1="258.731" x2="169.227" y2="258.731"/>
</svg>